<?xml version="1.0" standalone="no"?>
<!DOCTYPE svg PUBLIC "-//W3C//DTD SVG 1.1//EN" "http://www.w3.org/Graphics/SVG/1.1/DTD/svg11.dtd">
<svg xmlns="http://www.w3.org/2000/svg" xmlns:xlink="http://www.w3.org/1999/xlink" version="1.1" width="919" height="343" style="shape-rendering:geometricPrecision; text-rendering:geometricPrecision; image-rendering:optimizeQuality; fill-rule:evenodd; clip-rule:evenodd" viewBox="0 0 919 343">
<g><path style="opacity:1" fill="#fefefe" d="M -0.5,-0.5 C 305.833,-0.5 612.167,-0.5 918.5,-0.5C 918.5,113.833 918.5,228.167 918.5,342.5C 612.167,342.5 305.833,342.5 -0.5,342.5C -0.5,228.167 -0.5,113.833 -0.5,-0.5 Z"/></g>
<g><path style="opacity:1" fill="#9d9687" d="M 272.5,51.5 C 281.227,57.3889 288.894,64.5556 295.5,73C 292.757,78.0829 289.59,82.9163 286,87.5C 283.725,99.6297 285.892,110.963 292.5,121.5C 293.723,122.614 295.056,122.781 296.5,122C 302.472,115.183 309.138,109.35 316.5,104.5C 333.291,96.3719 349.957,96.5386 366.5,105C 359.01,104.455 351.677,104.622 344.5,105.5C 337.877,106.54 331.877,109.04 326.5,113C 315.807,126.096 303.807,137.763 290.5,148C 282.671,153.832 274.004,157.832 264.5,160C 257.792,160.638 251.126,160.305 244.5,159C 194.287,147.465 143.621,138.631 92.5,132.5C 91.8333,132.5 91.1667,132.5 90.5,132.5C 88.4375,131.224 86.1042,130.39 83.5,130C 60.2229,126.906 36.8896,124.406 13.5,122.5C 15.7548,121.498 20.0881,120.832 26.5,120.5C 27.7716,120.57 28.9383,120.903 30,121.5C 48.8499,120.981 67.6832,120.148 86.5,119C 97.5725,106.801 98.0725,94.3009 88,81.5C 86.6323,78.2617 86.2989,74.9283 87,71.5C 93.4695,62.8578 101.303,55.8578 110.5,50.5C 114.336,53.4934 118.336,56.3267 122.5,59C 129.275,61.0999 135.941,60.7666 142.5,58C 148.5,55.3333 154.5,52.6667 160.5,50C 162.96,48.5422 165.127,46.7089 167,44.5C 168.839,38.9673 170.172,33.3007 171,27.5C 172.008,25.741 173.508,24.5743 175.5,24C 185.5,22 195.5,22 205.5,24C 207.547,29.0136 209.214,34.1803 210.5,39.5C 212.267,42.7698 214.6,45.6032 217.5,48C 227.665,54.5954 238.665,58.5954 250.5,60C 255.802,57.3489 261.136,54.6822 266.5,52C 268.473,51.5045 270.473,51.3379 272.5,51.5 Z"/></g>
<g><path style="opacity:1" fill="#ededed" d="M 272.5,51.5 C 276.604,51.8839 280.271,53.3839 283.5,56C 289.738,60.8895 294.405,66.8895 297.5,74C 295.628,78.2435 293.128,82.0768 290,85.5C 288.136,88.5924 286.969,91.9257 286.5,95.5C 287.307,103.225 289.64,110.391 293.5,117C 295.167,117.667 296.833,117.667 298.5,117C 301.167,113 304.5,109.667 308.5,107C 310.909,105.293 313.575,104.46 316.5,104.5C 309.138,109.35 302.472,115.183 296.5,122C 295.056,122.781 293.723,122.614 292.5,121.5C 285.892,110.963 283.725,99.6297 286,87.5C 289.59,82.9163 292.757,78.0829 295.5,73C 288.894,64.5556 281.227,57.3889 272.5,51.5 Z"/></g>
<g><path style="opacity:1" fill="#373530" d="M 443.5,100.5 C 445.8,100.522 446.967,101.522 447,103.5C 444.061,102.872 441.228,102.205 438.5,101.5C 440.415,101.784 442.081,101.451 443.5,100.5 Z"/></g>
<g><path style="opacity:1" fill="#ededed" d="M 401.5,109.5 C 394.329,115.826 387.163,122.492 380,129.5C 365.819,154.867 353.486,181.2 343,208.5C 339.322,215.35 335.488,222.184 331.5,229C 348.444,230.442 365.444,230.942 382.5,230.5C 372.013,231.494 361.346,231.828 350.5,231.5C 342.648,231.825 334.982,231.492 327.5,230.5C 332.662,224.189 336.829,217.189 340,209.5C 347.512,191.812 355.012,174.145 362.5,156.5C 365.622,151.919 367.956,146.919 369.5,141.5C 377.139,127.861 387.806,117.194 401.5,109.5 Z"/></g>
<g><path style="opacity:1" fill="#45423c" d="M 13.5,122.5 C 36.8896,124.406 60.2229,126.906 83.5,130C 86.1042,130.39 88.4375,131.224 90.5,132.5C 71.392,129.766 52.2254,127.432 33,125.5C 31.6153,125.514 30.4486,125.848 29.5,126.5C 23.9063,125.768 18.5729,124.435 13.5,122.5 Z"/></g>
<g><path style="opacity:1" fill="#eeeeee" d="M 344.5,105.5 C 338.033,108.28 332.033,111.946 326.5,116.5C 319.015,124.486 311.348,132.319 303.5,140C 297.852,143.985 292.519,148.318 287.5,153C 275.805,160.089 263.138,162.756 249.5,161C 218.836,155.001 188.169,149.001 157.5,143C 146.565,140.818 135.565,139.485 124.5,139C 149.315,145.936 172.982,155.603 195.5,168C 211.514,181.188 222.681,197.688 229,217.5C 229.667,225.5 229.667,233.5 229,241.5C 225.435,253.298 219.768,263.965 212,273.5C 211.517,274.448 211.351,275.448 211.5,276.5C 213.199,276.66 214.866,276.494 216.5,276C 228.149,268.507 240.482,262.673 253.5,258.5C 236.373,266.314 219.873,275.314 204,285.5C 203.48,283.711 203.813,282.044 205,280.5C 209.419,273.328 214.085,266.328 219,259.5C 230.267,239.203 230.267,218.869 219,198.5C 208.115,179.792 192.615,166.292 172.5,158C 146.477,147.158 119.81,138.658 92.5,132.5C 143.621,138.631 194.287,147.465 244.5,159C 251.126,160.305 257.792,160.638 264.5,160C 274.004,157.832 282.671,153.832 290.5,148C 303.807,137.763 315.807,126.096 326.5,113C 331.877,109.04 337.877,106.54 344.5,105.5 Z"/></g>
<g><path style="opacity:1" fill="#504c45" d="M 369.5,141.5 C 367.956,146.919 365.622,151.919 362.5,156.5C 364.044,151.081 366.378,146.081 369.5,141.5 Z"/></g>
<g><path style="opacity:1" fill="#8e887a" d="M 523.5,143.5 C 528.776,144.109 531.776,147.109 532.5,152.5C 531.877,154.711 530.877,156.711 529.5,158.5C 533.799,163.729 533.465,168.563 528.5,173C 527.552,173.483 526.552,173.649 525.5,173.5C 512.833,173.5 500.167,173.5 487.5,173.5C 487.5,163.5 487.5,153.5 487.5,143.5C 499.5,143.5 511.5,143.5 523.5,143.5 Z"/></g>
<g><path style="opacity:1" fill="#857f72" d="M 804.5,155.5 C 814.781,157.476 825.448,158.143 836.5,157.5C 842.806,162.542 843.14,168.042 837.5,174C 824.838,174.5 812.171,174.667 799.5,174.5C 799.5,172.5 799.5,170.5 799.5,168.5C 811.186,168.832 822.852,168.499 834.5,167.5C 835.807,166.135 835.807,164.802 834.5,163.5C 824.554,161.525 814.221,160.858 803.5,161.5C 795.059,156.668 794.392,150.834 801.5,144C 814.096,142.393 826.763,142.059 839.5,143C 839.784,144.956 839.784,147.123 839.5,149.5C 827.829,149.333 816.162,149.5 804.5,150C 803.193,151.943 803.193,153.777 804.5,155.5 Z"/></g>
<g><path style="opacity:1" fill="#827d70" d="M 542.5,143.5 C 555.833,143.5 569.167,143.5 582.5,143.5C 582.5,145.167 582.5,146.833 582.5,148.5C 570.495,148.333 558.495,148.5 546.5,149C 545.577,151.041 545.244,153.208 545.5,155.5C 556.172,155.333 566.839,155.5 577.5,156C 578.406,157.699 578.739,159.533 578.5,161.5C 567.5,161.5 556.5,161.5 545.5,161.5C 545.5,163.833 545.5,166.167 545.5,168.5C 557.838,168.333 570.171,168.5 582.5,169C 583.833,171 583.833,173 582.5,175C 569.072,175.962 555.739,175.629 542.5,174C 540.951,172.786 539.785,171.286 539,169.5C 538.333,162.5 538.333,155.5 539,148.5C 539.997,146.677 541.164,145.01 542.5,143.5 Z"/></g>
<g><path style="opacity:1" fill="#837e71" d="M 699.5,143.5 C 711.601,143.041 723.601,143.541 735.5,145C 736.701,145.903 737.535,147.069 738,148.5C 738.667,156.167 738.667,163.833 738,171.5C 737.097,172.701 735.931,173.535 734.5,174C 722.096,174.939 709.762,174.606 697.5,173C 695.951,171.786 694.785,170.286 694,168.5C 693.116,161.418 693.449,154.418 695,147.5C 696.397,145.93 697.897,144.596 699.5,143.5 Z"/></g>
<g><path style="opacity:1" fill="#898375" d="M 784.5,144.5 C 786.167,144.5 787.833,144.5 789.5,144.5C 789.5,154.167 789.5,163.833 789.5,173.5C 784.833,173.5 780.167,173.5 775.5,173.5C 769.123,166.435 763.456,158.769 758.5,150.5C 756.827,148.914 754.827,148.247 752.5,148.5C 752.666,156.84 752.5,165.173 752,173.5C 750.301,174.406 748.467,174.739 746.5,174.5C 746.5,164.167 746.5,153.833 746.5,143.5C 751.959,143.103 757.292,143.603 762.5,145C 768.167,152.667 773.833,160.333 779.5,168C 780.793,168.49 782.127,168.657 783.5,168.5C 783.174,160.316 783.508,152.316 784.5,144.5 Z"/></g>
<g><path style="opacity:1" fill="#46433c" d="M 784.5,144.5 C 786.265,143.539 788.265,143.205 790.5,143.5C 790.5,153.833 790.5,164.167 790.5,174.5C 785.305,174.821 780.305,174.487 775.5,173.5C 780.167,173.5 784.833,173.5 789.5,173.5C 789.5,163.833 789.5,154.167 789.5,144.5C 787.833,144.5 786.167,144.5 784.5,144.5 Z"/></g>
<g><path style="opacity:1" fill="#efefef" d="M 493.5,149.5 C 503.839,149.334 514.172,149.5 524.5,150C 525.935,152.267 525.602,154.267 523.5,156C 513.833,156.667 504.167,156.667 494.5,156C 493.577,153.959 493.244,151.792 493.5,149.5 Z"/></g>
<g><path style="opacity:1" fill="#857f72" d="M 649.5,155.5 C 659.781,157.476 670.448,158.143 681.5,157.5C 686.602,161.069 687.768,165.736 685,171.5C 684.097,172.701 682.931,173.535 681.5,174C 669.171,174.5 656.838,174.667 644.5,174.5C 644.5,172.5 644.5,170.5 644.5,168.5C 656.186,168.832 667.852,168.499 679.5,167.5C 680.807,166.135 680.807,164.802 679.5,163.5C 669.554,161.525 659.221,160.858 648.5,161.5C 641.47,158.367 639.804,153.367 643.5,146.5C 644.5,145.667 645.5,144.833 646.5,144C 659.092,142.559 671.759,142.059 684.5,142.5C 684.5,144.833 684.5,147.167 684.5,149.5C 672.829,149.333 661.162,149.5 649.5,150C 648.193,151.943 648.193,153.777 649.5,155.5 Z"/></g>
<g><path style="opacity:1" fill="#fafafa" d="M 702.5,148.5 C 711.887,148.193 721.22,148.527 730.5,149.5C 731.664,155.472 731.83,161.472 731,167.5C 721.227,168.818 711.394,168.818 701.5,167.5C 700.379,161.886 700.212,156.22 701,150.5C 701.717,149.956 702.217,149.289 702.5,148.5 Z"/></g>
<g><path style="opacity:1" fill="#8f897b" d="M 622.5,167.5 C 622.97,168.693 623.97,169.36 625.5,169.5C 626.726,169.48 627.726,169.147 628.5,168.5C 628.5,160.167 628.5,151.833 628.5,143.5C 630.5,143.5 632.5,143.5 634.5,143.5C 634.5,153.5 634.5,163.5 634.5,173.5C 629.105,173.733 623.772,173.4 618.5,172.5C 613.109,165.409 607.943,158.075 603,150.5C 601.416,149.139 599.582,148.472 597.5,148.5C 597.5,157.167 597.5,165.833 597.5,174.5C 595.167,174.5 592.833,174.5 590.5,174.5C 590.5,164.167 590.5,153.833 590.5,143.5C 595.844,143.334 601.177,143.501 606.5,144C 611.967,151.775 617.3,159.609 622.5,167.5 Z"/></g>
<g><path style="opacity:1" fill="#666258" d="M 649.5,155.5 C 660.265,156.145 670.932,156.812 681.5,157.5C 670.448,158.143 659.781,157.476 649.5,155.5 Z"/></g>
<g><path style="opacity:1" fill="#646056" d="M 804.5,155.5 C 815.265,156.145 825.932,156.812 836.5,157.5C 825.448,158.143 814.781,157.476 804.5,155.5 Z"/></g>
<g><path style="opacity:1" fill="#403e37" d="M 648.5,161.5 C 659.221,160.858 669.554,161.525 679.5,163.5C 669.068,162.855 658.735,162.189 648.5,161.5 Z"/></g>
<g><path style="opacity:1" fill="#403d37" d="M 803.5,161.5 C 814.221,160.858 824.554,161.525 834.5,163.5C 824.068,162.855 813.735,162.189 803.5,161.5 Z"/></g>
<g><path style="opacity:1" fill="#f5f5f5" d="M 493.5,162.5 C 503.839,162.334 514.172,162.5 524.5,163C 525.86,164.938 525.527,166.604 523.5,168C 513.833,168.667 504.167,168.667 494.5,168C 493.594,166.301 493.261,164.467 493.5,162.5 Z"/></g>
<g><path style="opacity:1" fill="#141412" d="M 622.5,167.5 C 624.379,168.341 626.379,168.675 628.5,168.5C 627.726,169.147 626.726,169.48 625.5,169.5C 623.97,169.36 622.97,168.693 622.5,167.5 Z"/></g>
<g><path style="opacity:1" fill="#302e2a" d="M 523.5,143.5 C 511.5,143.5 499.5,143.5 487.5,143.5C 487.5,153.5 487.5,163.5 487.5,173.5C 500.167,173.5 512.833,173.5 525.5,173.5C 512.677,174.495 499.677,174.829 486.5,174.5C 486.5,163.833 486.5,153.167 486.5,142.5C 499.011,142.171 511.345,142.505 523.5,143.5 Z"/></g>
<g><path style="opacity:1" fill="#56534a" d="M 634.5,143.5 C 635.494,153.653 635.828,163.986 635.5,174.5C 630.156,174.666 624.823,174.499 619.5,174C 618.944,173.617 618.611,173.117 618.5,172.5C 623.772,173.4 629.105,173.733 634.5,173.5C 634.5,163.5 634.5,153.5 634.5,143.5 Z"/></g>
<g><path style="opacity:1" fill="#3f3c36" d="M 647.5,185.5 C 659.655,184.505 671.989,184.171 684.5,184.5C 684.795,186.735 684.461,188.735 683.5,190.5C 683.5,188.833 683.5,187.167 683.5,185.5C 671.5,185.5 659.5,185.5 647.5,185.5 Z"/></g>
<g><path style="opacity:1" fill="#908a7c" d="M 647.5,185.5 C 659.5,185.5 671.5,185.5 683.5,185.5C 683.5,187.167 683.5,188.833 683.5,190.5C 672.162,190.333 660.828,190.5 649.5,191C 646.833,193.333 646.833,195.667 649.5,198C 660.597,198.044 671.597,198.711 682.5,200C 685.318,203.338 686.151,207.171 685,211.5C 684.31,213.35 683.144,214.684 681.5,215.5C 669.167,215.5 656.833,215.5 644.5,215.5C 644.5,214.167 644.5,212.833 644.5,211.5C 655.679,211.828 666.679,211.495 677.5,210.5C 679.405,208.951 679.739,207.118 678.5,205C 668.5,204.667 658.5,204.333 648.5,204C 641.871,201.101 639.705,196.268 642,189.5C 643.451,187.536 645.284,186.203 647.5,185.5 Z"/></g>
<g><path style="opacity:1" fill="#898376" d="M 493.5,207.5 C 493.953,208.458 494.619,209.292 495.5,210C 507.5,210.333 519.5,210.667 531.5,211C 532.406,212.699 532.739,214.533 532.5,216.5C 519.163,216.667 505.829,216.5 492.5,216C 490.249,215.252 488.916,213.752 488.5,211.5C 488.5,203.167 488.5,194.833 488.5,186.5C 489.833,186.5 491.167,186.5 492.5,186.5C 492.175,193.687 492.509,200.687 493.5,207.5 Z"/></g>
<g><path style="opacity:1" fill="#4b4941" d="M 493.5,207.5 C 492.509,200.687 492.175,193.687 492.5,186.5C 491.167,186.5 489.833,186.5 488.5,186.5C 488.5,194.833 488.5,203.167 488.5,211.5C 487.507,203.016 487.174,194.349 487.5,185.5C 489.5,185.5 491.5,185.5 493.5,185.5C 493.5,192.833 493.5,200.167 493.5,207.5 Z"/></g>
<g><path style="opacity:1" fill="#8e887a" d="M 569.5,186.5 C 574.5,186.5 579.5,186.5 584.5,186.5C 584.5,196.5 584.5,206.5 584.5,216.5C 583.167,216.5 581.833,216.5 580.5,216.5C 580.666,207.827 580.5,199.16 580,190.5C 578.057,189.193 576.223,189.193 574.5,190.5C 565.728,198.77 557.062,207.27 548.5,216C 545.5,216.667 542.5,216.667 539.5,216C 549.368,205.964 559.368,196.131 569.5,186.5 Z"/></g>
<g><path style="opacity:1" fill="#8c8678" d="M 593.5,185.5 C 607.265,185.036 620.932,185.536 634.5,187C 638.087,191.55 638.42,196.384 635.5,201.5C 639.246,205.335 639.412,209.335 636,213.5C 634.556,215.155 632.722,215.822 630.5,215.5C 618.167,215.5 605.833,215.5 593.5,215.5C 593.5,205.5 593.5,195.5 593.5,185.5 Z"/></g>
<g><path style="opacity:1" fill="#7a7569" d="M 734.5,227.5 C 741.508,227.666 748.508,227.5 755.5,227C 756.38,225.644 756.714,224.144 756.5,222.5C 757.434,223.568 757.768,224.901 757.5,226.5C 757.703,228.39 757.037,229.89 755.5,231C 748.174,231.5 740.841,231.666 733.5,231.5C 730.311,243.902 726.811,256.236 723,268.5C 720.047,274.025 718.047,273.692 717,267.5C 713.852,244.799 710.519,222.132 707,199.5C 703.546,208.97 700.546,218.636 698,228.5C 696.591,229.781 695.091,230.781 693.5,231.5C 569.832,232.688 446.165,234.021 322.5,235.5C 322.232,233.901 322.566,232.568 323.5,231.5C 332.5,232.833 341.5,232.833 350.5,231.5C 361.346,231.828 372.013,231.494 382.5,230.5C 486.173,229.525 589.84,228.025 693.5,226C 697.692,213.088 701.692,200.088 705.5,187C 706.886,184.217 708.386,184.05 710,186.5C 713.213,210.663 716.879,234.663 721,258.5C 723.511,249.454 726.178,240.454 729,231.5C 730.412,229.548 732.245,228.215 734.5,227.5 Z"/></g>
<g><path style="opacity:1" fill="#635f55" d="M 569.5,186.5 C 574.64,185.512 579.974,185.179 585.5,185.5C 585.5,196.167 585.5,206.833 585.5,217.5C 583.5,217.5 581.5,217.5 579.5,217.5C 579.666,208.827 579.5,200.16 579,191.5C 577.644,190.62 576.144,190.286 574.5,190.5C 576.223,189.193 578.057,189.193 580,190.5C 580.5,199.16 580.666,207.827 580.5,216.5C 581.833,216.5 583.167,216.5 584.5,216.5C 584.5,206.5 584.5,196.5 584.5,186.5C 579.5,186.5 574.5,186.5 569.5,186.5 Z"/></g>
<g><path style="opacity:1" fill="#efefef" d="M 599.5,191.5 C 609.855,191.168 620.188,191.501 630.5,192.5C 631.953,194.644 631.62,196.477 629.5,198C 619.833,198.667 610.167,198.667 600.5,198C 599.577,195.959 599.244,193.792 599.5,191.5 Z"/></g>
<g><path style="opacity:1" fill="#948e7f" d="M 443.5,100.5 C 442.081,101.451 440.415,101.784 438.5,101.5C 425.41,100.857 413.077,103.524 401.5,109.5C 387.806,117.194 377.139,127.861 369.5,141.5C 366.378,146.081 364.044,151.081 362.5,156.5C 355.012,174.145 347.512,191.812 340,209.5C 336.829,217.189 332.662,224.189 327.5,230.5C 326.292,231.234 324.959,231.567 323.5,231.5C 322.566,232.568 322.232,233.901 322.5,235.5C 316.588,242.437 309.921,248.437 302.5,253.5C 292.675,258.578 282.675,263.412 272.5,268C 253.09,274.803 233.757,281.803 214.5,289C 202.683,294.07 191.683,300.403 181.5,308C 179.35,309.59 177.017,310.257 174.5,310C 184.431,298.738 193.598,286.905 202,274.5C 213.237,255.774 215.571,236.108 209,215.5C 200.969,201.8 190.469,190.3 177.5,181C 154.356,166.724 129.689,155.724 103.5,148C 87.2902,143.615 71.2902,138.615 55.5,133C 46.7781,130.891 38.1114,128.724 29.5,126.5C 30.4486,125.848 31.6153,125.514 33,125.5C 52.2254,127.432 71.392,129.766 90.5,132.5C 91.1667,132.5 91.8333,132.5 92.5,132.5C 119.81,138.658 146.477,147.158 172.5,158C 192.615,166.292 208.115,179.792 219,198.5C 230.267,218.869 230.267,239.203 219,259.5C 214.085,266.328 209.419,273.328 205,280.5C 203.813,282.044 203.48,283.711 204,285.5C 219.873,275.314 236.373,266.314 253.5,258.5C 271.711,250.816 288.211,240.482 303,227.5C 306.581,222.672 309.915,217.672 313,212.5C 324.744,188.012 336.744,163.679 349,139.5C 363.511,117.324 383.678,103.157 409.5,97C 416.459,95.6695 423.459,95.3361 430.5,96C 435.243,96.6351 439.576,98.1351 443.5,100.5 Z"/></g>
<g><path style="opacity:1" fill="#f1f1f1" d="M 599.5,204.5 C 609.839,204.334 620.172,204.5 630.5,205C 631.86,206.938 631.527,208.604 629.5,210C 619.833,210.667 610.167,210.667 600.5,210C 599.594,208.301 599.261,206.467 599.5,204.5 Z"/></g>
<g><path style="opacity:1" fill="#403e38" d="M 593.5,185.5 C 593.5,195.5 593.5,205.5 593.5,215.5C 605.833,215.5 618.167,215.5 630.5,215.5C 618.011,216.495 605.344,216.829 592.5,216.5C 592.172,205.986 592.506,195.653 593.5,185.5 Z"/></g>
<g><path style="opacity:1" fill="#5e5a51" d="M 677.5,210.5 C 666.679,211.495 655.679,211.828 644.5,211.5C 644.5,212.833 644.5,214.167 644.5,215.5C 656.833,215.5 669.167,215.5 681.5,215.5C 669.011,216.495 656.344,216.829 643.5,216.5C 643.5,214.5 643.5,212.5 643.5,210.5C 654.833,210.5 666.167,210.5 677.5,210.5 Z"/></g>
<g><path style="opacity:1" fill="#3f3c36" d="M 756.5,222.5 C 756.714,224.144 756.38,225.644 755.5,227C 748.508,227.5 741.508,227.666 734.5,227.5C 740.987,226.672 747.654,226.172 754.5,226C 755.085,224.698 755.751,223.531 756.5,222.5 Z"/></g>
<g><path style="opacity:1" fill="#302f2a" d="M 327.5,230.5 C 334.982,231.492 342.648,231.825 350.5,231.5C 341.5,232.833 332.5,232.833 323.5,231.5C 324.959,231.567 326.292,231.234 327.5,230.5 Z"/></g>
<g><path style="opacity:1" fill="#efefef" d="M 693.5,231.5 C 575.003,233.842 456.336,235.842 337.5,237.5C 332.5,237.833 327.5,238.167 322.5,238.5C 318.927,241.783 315.594,245.283 312.5,249C 309.386,250.983 306.053,252.483 302.5,253.5C 309.921,248.437 316.588,242.437 322.5,235.5C 446.165,234.021 569.832,232.688 693.5,231.5 Z"/></g>
<g><path style="opacity:1" fill="#5a564e" d="M 757.5,226.5 C 757.768,224.901 757.434,223.568 756.5,222.5C 756.551,218.166 758.051,214.5 761,211.5C 761.667,212.167 762.333,212.833 763,213.5C 764.538,222.191 766.205,230.857 768,239.5C 769.333,236.167 770.667,232.833 772,229.5C 772.75,228.874 773.584,228.374 774.5,228C 790.83,227.979 807.163,228.312 823.5,229C 807.5,229.333 791.5,229.667 775.5,230C 774.299,230.903 773.465,232.069 773,233.5C 772.56,238.566 771.06,243.232 768.5,247.5C 767.914,247.291 767.414,246.957 767,246.5C 765,237.167 763,227.833 761,218.5C 759.828,221.231 758.661,223.898 757.5,226.5 Z"/></g>
</svg>